# xmcd
#
# Track frame offsets: 
#        150
#        10747
#        21727
#        33245
#        45737
#        55000
#        64362
#        76472
#        87530
#        100632
#        112870
#        124070
#        135142
#        153787
#        168645
#        180372
#        193315
#        204275
#        213832
#        226542
#        236660
#        244927
#        254342
#        268390
#        284057
#        293710
#        303627
#        315670
#        327635
#        339570
#
# Disc length: 4694 seconds
#
# Revision: 2
# Processed by: cddbd v1.5.2PL0 Copyright (c) Steve Scherf et al.
# Submitted via: ExactAudioCopy v0.99pb5
#
DISCID=b012541e
DTITLE=Various Artist - 1000 Nadelstiche - Folge 07 - More Country
DYEAR=2002
DGENRE=Schlager
TTITLE0=Leroy Van Dyke - Geh nicht vorbei
TTITLE1=Lynn Anderson - Ein Herz aus Stein
TTITLE2=Bobby Bare - Molly Brown
TTITLE3=Jim Ed Brown - Golden Girl (Blonde Träume)
TTITLE4=Johnny Cash - In Virginia
TTITLE5=Jody Miller - Sei mein Mann
TTITLE6=Anita Kerr Singers - Morgen schon ist es zu spät
TTITLE7=Frank Ifield - Du gehörst mir ganz allein
TTITLE8=Willis Brothers  - Schönes Mädchen vom Red River Valley
TTITLE9=Karl Denver - Ja, der Willy muß beim Whiskey immer weinen
TTITLE10=Karl Denver - Adios Bella Rosa
TTITLE11=Bill Hayes - Die Ballade von David Crockett
TTITLE12=Ken Curtis Alias Festus - Hey Deputy
TTITLE13=Ken Curtis Alias Festus - Der Fremde
TTITLE14=Frank Ifield - Der alte Cowboy
TTITLE15=Bobby Bare - Good Old Tennessee
TTITLE16=Anita Kerr Singers - I'm Happy Baby
TTITLE17=Lynn Anderson - Dreh dich nicht um My Darling
TTITLE18=Bobby Bare - Das Haus auf der Sierra
TTITLE19=Jim Ed Brown - Schöne Mädchen, die können nicht treu sein
TTITLE20=Johnny Cash - Wo ist zu Hause Mama
TTITLE21=Anita Kerr Singers - Singapur
TTITLE22=Jody Miller - Jetzt geh'n uns're Sterne auf
TTITLE23=Anita Kerr Singers - Schön ist der Morgen
TTITLE24=Johnny Cash - Viel zu spät
TTITLE25=Bobby Bare - Wilder Wolf und brauner Bär
TTITLE26=Jim Ed Brown - I Heard From A Memory Last Night
TTITLE27=Willis Brothers - Dreimal genügt in Tennessee
TTITLE28=Bill Hayes - Leb wohl, meine Heimat
TTITLE29=Skeeter Davis - G.I. Johnny
EXTD=
EXTT0=
EXTT1=
EXTT2=
EXTT3=
EXTT4=
EXTT5=
EXTT6=
EXTT7=
EXTT8=
EXTT9=
EXTT10=
EXTT11=
EXTT12=
EXTT13=
EXTT14=
EXTT15=
EXTT16=
EXTT17=
EXTT18=
EXTT19=
EXTT20=
EXTT21=
EXTT22=
EXTT23=
EXTT24=
EXTT25=
EXTT26=
EXTT27=
EXTT28=
EXTT29=
PLAYORDER=
